# xmcd
#
# Track frame offsets: 
#        150
#        16769
#        41400
#        60250
#        73651
#        104690
#        124667
#        141752
#        157535
#        186086
#
# Disc length: 2693 seconds
#
# Revision: 1
# Processed by: cddbd v1.5.2PL0 Copyright (c) Steve Scherf et al.
# Submitted via: ExactAudioCopy v0.95b4
#
DISCID=780a830a
DTITLE=The Boogaloo Investigators - Dynamighty!
DYEAR=2005
DGENRE=Soul
TTITLE0=If You Reap
TTITLE1=Volcano
TTITLE2=These Days
TTITLE3=I Got The Feelin'
TTITLE4=Sleep Walk
TTITLE5=Let The Groove Move You
TTITLE6=The Sloth
TTITLE7=Gambit
TTITLE8=Frenchy Frenchy
TTITLE9=Let's Work A While
EXTD=
EXTT0=
EXTT1=
EXTT2=
EXTT3=
EXTT4=
EXTT5=
EXTT6=
EXTT7=
EXTT8=
EXTT9=
PLAYORDER=
